<svg xmlns="http://www.w3.org/2000/svg" viewBox="0 0 456.556 456.556"><path d="M443.128 141.191c-7.413 0-13.428-6.015-13.428-13.428V26.856H328.793c-7.413 0-13.428-6.015-13.428-13.428S321.38 0 328.793 0h114.335c7.413 0 13.428 6.015 13.428 13.428v114.335c0 7.413-6.015 13.428-13.428 13.428z"/><path d="M231.327 236.74a13.39 13.39 0 0 1-9.54-3.979c-5.217-5.266-5.182-13.771.091-18.988L426.224 11.344c5.266-5.217 13.778-5.168 18.988.091 5.217 5.266 5.182 13.771-.091 18.988L240.776 232.852a13.377 13.377 0 0 1-9.449 3.888z"/><path d="M331.563 456.556H80.569C36.144 456.556 0 420.412 0 375.987V124.993c0-44.425 36.144-80.569 80.569-80.569h161.137c7.413 0 13.428 6.015 13.428 13.428s-6.015 13.428-13.428 13.428H80.569c-29.619 0-53.712 24.094-53.712 53.712v250.994c0 29.619 24.094 53.712 53.712 53.712h250.994c29.619 0 53.712-24.094 53.712-53.712V208.919c0-7.413 6.015-13.428 13.428-13.428 7.413 0 13.428 6.015 13.428 13.428v167.068c0 44.425-36.144 80.569-80.568 80.569z"/></svg>