<svg xmlns="http://www.w3.org/2000/svg" width="493.578" height="493.578" viewBox="0 0 493.578 493.578"><path d="M487.267 225.981c0-17.365-13.999-31.518-31.518-31.518H194.501L305.35 83.615c12.24-12.24 12.24-32.207 0-44.676L275.592 9.18c-12.24-12.24-32.207-12.24-44.676 0L15.568 224.527c-6.12 6.12-9.256 14.153-9.256 22.262a31.533 31.533 0 0 0 9.256 22.262l215.348 215.348c12.24 12.239 32.207 12.239 44.676 0l29.758-29.759c12.24-12.24 12.24-32.207 0-44.676L194.501 299.498h261.094c17.366 0 31.519-14.153 31.519-31.519l.153-41.998z"/></svg>