<svg xmlns="http://www.w3.org/2000/svg" width="488.501" height="488.5" viewBox="0 0 488.501 488.5"><path d="M487.312 159.162c-7.811-60.12-55.14-108.024-115.112-116.511a140.33 140.33 0 0 0-19.69-1.395c-43.417 0-83.353 20.523-108.664 54.18-25.362-33.038-65.015-53.168-107.866-53.168-6.626 0-13.358.482-19.994 1.437C58.812 51.915 11.987 97.287 2.111 154.046c-7.496 43.113 5.169 85.801 34.788 117.292 3.901 4.676 9.132 10.621 13.882 15.994l4.058 4.619c29.976 34.18 93.586 95.86 137.779 135.619 13.798 12.435 32.765 19.674 52.036 19.674h.546c19.921-.467 38.991-7.476 52.339-19.947 37.189-34.693 61.598-59.484 102.257-101.827l1.552-1.625c45.996-47.485 53.818-57.042 56.387-60.507 23.999-29.285 34.505-66.254 29.577-104.176zm-71.39 70.63c-12.265 15.056-8.984 11.245-53.053 56.738l-1.73 1.781c-39.946 41.584-63.883 65.75-100.17 99.601-3.586 3.35-11.607 5.315-16.251 5.315-6.103 0-12.173-2.061-16.21-5.698-42.096-37.886-105.078-98.697-133.365-130.964l-4.162-4.696c-4.613-5.228-10.889-12.692-14.637-16.817-17.771-19.563-26.055-45.31-21.431-71.821 5.944-34.19 34.2-61.529 68.695-66.483a88.073 88.073 0 0 1 12.372-.886c32.764 0 62.405 19.407 75.531 49.43 5.672 12.991 18.421 21.374 32.523 21.374 14.217 0 27.03-8.494 32.649-21.662 14.542-34.165 50.526-54.542 88.01-49.293 35.616 5.048 64.826 34.625 69.472 70.341 3.019 23.294-3.628 45.798-18.243 63.74z"/></svg>