<svg xmlns="http://www.w3.org/2000/svg" viewBox="0 0 485 485">
    <path fill="#fff" d="M144.753 275.964c12.162 16.477 26.132 31.049 44.184 41.356 20.441 11.683 42.451 15.209 65.659 14.134 10.847-.52 14.108-3.347 14.607-14.154.336-7.403 1.192-14.786 4.835-21.435 3.582-6.527 9.018-7.76 15.285-3.699 3.123 2.048 5.752 4.616 8.239 7.362 6.109 6.669 12.024 13.573 18.352 20.023 7.958 8.101 17.394 12.875 29.235 11.902l45.875.02c7.383-.499 11.224-9.553 6.985-17.817-2.986-5.768-6.904-10.903-11.046-15.881-9.375-11.265-20.421-20.859-30.865-31.049-9.416-9.191-10.012-14.526-2.451-25.134 8.279-11.586 17.155-22.708 25.495-34.233 7.78-10.766 15.764-21.516 19.84-34.391 2.609-8.218.301-11.841-8.096-13.293-1.452-.239-2.965-.239-4.438-.239l-49.916-.061c-6.15-.097-9.533 2.588-11.703 8.04-2.945 7.367-5.971 14.73-9.477 21.817-7.917 16.121-16.778 31.701-29.194 44.877-2.746 2.904-5.793 6.588-10.368 5.075-5.711-2.089-7.403-11.52-7.306-14.704l-.041-57.619c-1.111-8.218-2.945-11.902-11.122-13.497h-51.847c-6.904 0-10.389 2.69-14.093 7.006-2.109 2.512-2.767 4.122 1.615 4.958 8.595 1.63 13.471 7.204 14.745 15.825 2.053 13.792 1.911 27.64.718 41.473-.336 4.04-1.034 8.06-2.629 11.841-2.507 5.951-6.567 7.148-11.881 3.485-4.794-3.302-8.177-7.958-11.504-12.636-12.437-17.578-22.347-36.521-30.448-56.427-2.329-5.752-6.369-9.232-12.458-9.334-14.969-.239-29.953-.275-44.943.02-8.993.158-11.683 4.54-7.999 12.717 16.3 36.281 34.454 71.548 58.156 103.672z"/>
    <path fill="#fff" d="M0 0v485h485V0H0zm455 455H30V30h425v425z"/>
</svg>
