<svg xmlns="http://www.w3.org/2000/svg" viewBox="0 0 493.595 493.595"><path d="M487.077 83.395a33.653 33.653 0 0 0-35.352-12.73L25.442 177.971a33.657 33.657 0 0 0-25.079 27.71 33.656 33.656 0 0 0 15.979 33.784l90.143 54.086v118.643a11.756 11.756 0 0 0 18.975 9.277l84.547-65.805 69.455 41.672a33.494 33.494 0 0 0 17.284 4.801c11.308 0 22.341-5.699 28.694-16.023l163.162-265.178a33.653 33.653 0 0 0-1.525-37.543zm-192.347 276.7L189.042 296.68l107.223-92.395a4.07 4.07 0 0 0 .834-5.179 4.07 4.07 0 0 0-4.96-1.704l-163.321 63.145-79.325-47.597 397.313-100.013L294.73 360.095z"/></svg>